HIERARCHY
ROOT hip
{
  OFFSET 0 0 0
  CHANNELS 6 Xposition Yposition Zposition Zrotation Yrotation Xrotation
  JOINT abdomen
  {
    OFFSET 0 20.6881 -0.73152
    CHANNELS 3 Zrotation Xrotation Yrotation
    JOINT chest
    {
      OFFSET 0 11.7043 -0.48768
      CHANNELS 3 Zrotation Xrotation Yrotation
      JOINT neck
      {
        OFFSET 0 22.1894 -2.19456
        CHANNELS 3 Zrotation Xrotation Yrotation
        JOINT head
        {
          OFFSET -0.24384 7.07133 1.2192
          CHANNELS 3 Zrotation Xrotation Yrotation
          JOINT leftEye
          {
            OFFSET 4.14528 8.04674 8.04672
            CHANNELS 3 Zrotation Xrotation Yrotation
            End Site
            {
              OFFSET 1 0 0
            }
          }
          JOINT rightEye
          {
            OFFSET -3.6576 8.04674 8.04672
            CHANNELS 3 Zrotation Xrotation Yrotation
            End Site
            {
              OFFSET 1 0 0
            }
          }
        }
      }
      JOINT rCollar
      {
        OFFSET -2.68224 19.2634 -4.8768
        CHANNELS 3 Zrotation Xrotation Yrotation
        JOINT rShldr
        {
          OFFSET -8.77824 -1.95073 1.46304
          CHANNELS 3 Zrotation Xrotation Yrotation
          JOINT rForeArm
          {
            OFFSET -28.1742 -1.7115 0.48768
            CHANNELS 3 Zrotation Xrotation Yrotation
            JOINT rHand
            {
              OFFSET -22.5879 0.773209 7.07136
              CHANNELS 3 Zrotation Xrotation Yrotation
              JOINT rThumb1
              {
                OFFSET -1.2192 -0.487915 3.41376
                CHANNELS 3 Zrotation Xrotation Yrotation
                JOINT rThumb2
                {
                  OFFSET -3.37035 -0.52449 3.41376
                  CHANNELS 3 Zrotation Xrotation Yrotation
                  End Site
                  {
                    OFFSET -1.78271 -1.18214 1.43049
                  }
                }
              }
              JOINT rIndex1
              {
                OFFSET -7.75947 0.938293 5.60832
                CHANNELS 3 Zrotation Xrotation Yrotation
                JOINT rIndex2
                {
                  OFFSET -2.54057 -0.884171 1.56538
                  CHANNELS 3 Zrotation Xrotation Yrotation
                  End Site
                  {
                    OFFSET -1.62519 -0.234802 1.16502
                  }
                }
              }
              JOINT rMid1
              {
                OFFSET -8.24714 1.18213 3.41376
                CHANNELS 3 Zrotation Xrotation Yrotation
                JOINT rMid2
                {
                  OFFSET -3.10165 -0.590103 1.0647
                  CHANNELS 3 Zrotation Xrotation Yrotation
                  End Site
                  {
                    OFFSET -2.48547 -0.328903 0.83742
                  }
                }
              }
              JOINT rRing1
              {
                OFFSET -8.82822 0.546677 1.51678
                CHANNELS 3 Zrotation Xrotation Yrotation
                JOINT rRing2
                {
                  OFFSET -2.60934 -0.819778 -0.0198488
                  CHANNELS 3 Zrotation Xrotation Yrotation
                  End Site
                  {
                    OFFSET -2.33842 -0.294052 0.168128
                  }
                }
              }
              JOINT rPinky1
              {
                OFFSET -8.27202 -0.0477905 -0.4584
                CHANNELS 3 Zrotation Xrotation Yrotation
                JOINT rPinky2
                {
                  OFFSET -1.82734 -0.647385 -0.700984
                  CHANNELS 3 Zrotation Xrotation Yrotation
                  End Site
                  {
                    OFFSET -1.69225 -0.51767 -0.607171
                  }
                }
              }
            }
          }
        }
      }
      JOINT lCollar
      {
        OFFSET 2.68224 19.2634 -4.8768
        CHANNELS 3 Zrotation Xrotation Yrotation
        JOINT lShldr
        {
          OFFSET 8.77824 -1.95073 1.46304
          CHANNELS 3 Zrotation Xrotation Yrotation
          JOINT lForeArm
          {
            OFFSET 28.1742 -1.7115 0.48768
            CHANNELS 3 Zrotation Xrotation Yrotation
            JOINT lHand
            {
              OFFSET 22.5879 0.773209 7.07136
              CHANNELS 3 Zrotation Xrotation Yrotation
              JOINT lThumb1
              {
                OFFSET 1.2192 -0.487915 3.41376
                CHANNELS 3 Zrotation Xrotation Yrotation
                JOINT lThumb2
                {
                  OFFSET 3.37035 -0.52449 3.41376
                  CHANNELS 3 Zrotation Xrotation Yrotation
                  End Site
                  {
                    OFFSET 1.78271 -1.18214 1.43049
                  }
                }
              }
              JOINT lIndex1
              {
                OFFSET 7.75947 0.938293 5.60832
                CHANNELS 3 Zrotation Xrotation Yrotation
                JOINT lIndex2
                {
                  OFFSET 2.54057 -0.884171 1.56538
                  CHANNELS 3 Zrotation Xrotation Yrotation
                  End Site
                  {
                    OFFSET 1.62519 -0.234802 1.16502
                  }
                }
              }
              JOINT lMid1
              {
                OFFSET 8.24714 1.18213 3.41376
                CHANNELS 3 Zrotation Xrotation Yrotation
                JOINT lMid2
                {
                  OFFSET 3.10165 -0.590103 1.0647
                  CHANNELS 3 Zrotation Xrotation Yrotation
                  End Site
                  {
                    OFFSET 2.48547 -0.328903 0.83742
                  }
                }
              }
              JOINT lRing1
              {
                OFFSET 8.82822 0.546677 1.51678
                CHANNELS 3 Zrotation Xrotation Yrotation
                JOINT lRing2
                {
                  OFFSET 2.60934 -0.819778 -0.0198488
                  CHANNELS 3 Zrotation Xrotation Yrotation
                  End Site
                  {
                    OFFSET 2.33842 -0.294052 0.168128
                  }
                }
              }
              JOINT lPinky1
              {
                OFFSET 8.27202 -0.0477905 -0.4584
                CHANNELS 3 Zrotation Xrotation Yrotation
                JOINT lPinky2
                {
                  OFFSET 1.82734 -0.647385 -0.700984
                  CHANNELS 3 Zrotation Xrotation Yrotation
                  End Site
                  {
                    OFFSET 1.69225 -0.51767 -0.607171
                  }
                }
              }
            }
          }
        }
      }
    }
  }
  JOINT rButtock
  {
    OFFSET -8.77824 4.35084 1.2192
    CHANNELS 3 Zrotation Xrotation Yrotation
    JOINT rThigh
    {
      OFFSET 0 -1.70687 -2.19456
      CHANNELS 3 Zrotation Xrotation Yrotation
      JOINT rShin
      {
        OFFSET 0 -36.8199 0.73152
        CHANNELS 3 Zrotation Xrotation Yrotation
        JOINT rFoot
        {
          OFFSET 0.73152 -45.1104 -5.12064
          CHANNELS 3 Zrotation Xrotation Yrotation
          End Site
          {
            OFFSET -1.1221 -3.69964 12.103
          }
        }
      }
    }
  }
  JOINT lButtock
  {
    OFFSET 8.77824 4.35084 1.2192
    CHANNELS 3 Zrotation Xrotation Yrotation
    JOINT lThigh
    {
      OFFSET 0 -1.70687 -2.19456
      CHANNELS 3 Zrotation Xrotation Yrotation
      JOINT lShin
      {
        OFFSET 0 -36.8199 0.73152
        CHANNELS 3 Zrotation Xrotation Yrotation
        JOINT lFoot
        {
          OFFSET -0.73152 -45.1104 -5.12064
          CHANNELS 3 Zrotation Xrotation Yrotation
          End Site
          {
            OFFSET 1.1221 -3.69964 12.103
          }
        }
      }
    }
  }
}
MOTION
Frames:	4
Frame Time:	0.00833333
0.0 0.0 0.0 0.0 0.0 0.0 0.0 0.0 0.0 0.0 0.0 0.0 0.0 0.0 0.0 0.0 0.0 0.0 0.0 0.0 0.0 0.0 0.0 0.0 0.0 0.0 0.0 0.0 0.0 0.0 0.0 0.0 0.0 0.0 0.0 0.0 0.0 0.0 0.0 0.0 0.0 0.0 0.0 0.0 0.0 0.0 0.0 0.0 0.0 0.0 0.0 0.0 0.0 0.0 0.0 0.0 0.0 0.0 0.0 0.0 0.0 0.0 0.0 0.0 0.0 0.0 0.0 0.0 0.0 0.0 0.0 0.0 0.0 0.0 0.0 0.0 0.0 0.0 0.0 0.0 0.0 0.0 0.0 0.0 0.0 0.0 0.0 0.0 0.0 0.0 0.0 0.0 0.0 0.0 0.0 0.0 0.0 0.0 0.0 0.0 0.0 0.0 0.0 0.0 0.0 0.0 0.0 0.0 0.0 0.0 0.0 0.0 0.0 0.0 0.0 0.0 0.0 0.0 0.0 0.0 0.0 0.0 0.0 0.0 0.0 0.0 0.0 0.0 0.0 0.0 0.0 0.0
9.999999999999999e-05 62.185199999999995 0.059199999999999996 -2.554051 -88.625533 1.76537 -0.172593 3.364448 2.817029 9.5575 2.780781 -60.234571 -7.216857 -4.005357 -125.397321 27.647512 -26.685572 37.030748 53.626223 -3.289205 -6.502617 18.053055 -14.883977 -78.857809 -53.052553 -87.287714 -151.663133 -159.182133 27.550409 168.327356 -3.562003 74.216954 172.067137 -175.356828 51.816514 77.128 6.604053 -15.747749 43.443922 170.679653 10.100471 -89.737981 159.176746 32.358805 -123.377449 -17.50749 35.949208 -82.590854 -47.972836 -1.700677 -113.742946 138.222028 -55.489076 116.892388 92.42775 15.845425 -81.811995 5.281004 -30.757541 -9.379352 30.367012 11.403578 -66.587448 -11.088425 -31.06911 -13.133979 82.695305 -43.19793 -168.574963 169.960024 -40.552758 -171.082634 0.961909 51.521873 -168.922567 -175.624397 22.96018 -110.835045 -13.431301 -25.912338 -13.818745 -163.820976 -63.247589 -103.566981 151.514097 7.029365 -87.692551 82.504087 43.465088 -69.91934 -9.979511 -18.99395 -33.023966 94.577824 77.079228 -60.279414 -94.493275 -11.972359 79.333601 157.619776 -51.836248 -173.267209 46.960819 41.424144 99.055098 156.736199 44.89455 148.393474 17.626258 -47.789202 20.597804 -3.469693 51.815022 -5.012874 -0.91806 -7.410794 -2.48169 68.975174 -22.214904 -99.487239 -2.385045 -50.191681 -2.023921 2.679954 51.91977 -1.847148 5.504382 -1.970842 69.566158 -3.771439 -68.246411 171.983815
0.6498 58.4182 1.0843 -19.758895 51.173364 -14.726599 9.178388 8.244012 75.823133 -3.601596 0.460848 -61.165901 11.162377 19.037213 115.029552 -25.866446 14.966478 -88.963317 -12.357192 0.658089 -6.07334 13.000507 -0.639301 -5.606437 -2.237866 34.505597 3.685199 65.231671 20.054372 2.46324 -8.718946 -27.476807 111.6813 -7.844689 -50.749293 -16.596981 -9.951076 23.056901 -1.076002 178.667676 -56.837363 100.847093 24.538885 -37.766461 -0.516517 12.263811 -70.947765 2.338187 27.671555 -31.410448 11.667977 -3.667334 -22.058295 -8.408906 8.30471 -33.138394 -3.255346 170.109771 82.925789 -170.892679 4.148694 54.738684 18.820337 -170.710831 47.238915 -155.315571 144.344253 32.33532 -144.755673 21.506765 30.768888 19.788105 9.209621 -48.774404 85.547482 -142.341079 -44.726857 -129.307172 5.604372 0.274205 0.659588 -21.416354 -25.159999 -3.332288 13.675009 18.243747 -22.012809 169.26946 -40.172138 -128.098922 164.346057 5.439018 -145.834714 18.271466 -20.313686 27.115906 0.687644 19.332485 -13.215392 -144.839728 82.440152 138.956601 119.322502 -75.758198 95.107828 144.541317 -27.548542 100.094059 -73.630986 33.412336 -62.26216 63.027969 42.571499 38.686271 -11.187235 47.206398 -28.658979 -89.434488 -26.719518 2.287716 171.038801 68.044452 10.504817 -140.590679 -5.761213 87.234918 82.245601 10.23844 143.233003 -85.413944 61.489531 160.160383
0.5994 61.6116 1.2047999999999999 -24.614581 59.720458 -16.816693 6.001393 5.236608 103.62501 -7.91241 -0.521091 -90.928232 -5.064942 19.102444 -92.554147 21.635641 15.577406 120.017513 -22.041791 2.081788 -10.659382 9.26142 -0.308665 -3.809394 5.439749 -2.018644 -4.929097 -127.278414 16.935176 -141.262853 -145.367214 -5.672688 -54.319949 130.283462 -86.935618 111.979025 -0.676345 -3.880774 2.178346 -130.592334 8.166707 92.808865 -160.152928 -63.289222 114.914527 -106.1085 -23.973127 101.170962 -12.28977 26.116343 11.600961 -174.51202 -32.479027 151.040121 -10.21671 16.737669 4.87138 -176.349625 -5.846519 -172.826595 -154.78375 -2.926586 -135.037355 -112.477177 10.84052 -121.541391 93.968462 68.085144 -96.745728 -125.436052 23.595472 -171.737831 1.444512 29.547891 -25.253551 49.711121 75.503033 -44.085289 -160.211684 -23.1314 -74.59074 -153.772517 -31.40932 -96.152934 105.343286 39.133395 -92.830851 7.73284 11.067894 17.797402 14.777519 50.211364 -6.425263 166.353186 12.262149 -106.606815 -11.02037 0.858169 0.033685 1.11602 33.742075 1.449889 -4.935541 7.198688 -17.504987 1.898357 5.079508 4.661837 -12.355328 88.453702 -167.481418 60.526468 84.201621 -162.326491 51.551805 2.000224 103.538137 -80.173437 67.730117 -175.530929 -77.687525 64.997906 -64.497836 -179.569844 19.92921 -1.798327 -68.415367 55.007135 -50.879795 -167.722045 65.496702 -129.971118
